<svg width="16" height="16" viewBox="0 0 16 16" fill="none" xmlns="http://www.w3.org/2000/svg">
<g clip-path="url(#clip0_15_29)">
<path fill-rule="evenodd" clip-rule="evenodd" d="M7.97553 0C3.57186 0 0 3.67146 0 8.19792C0 11.8191 2.29969 14.887 5.43119 15.9935C5.82263 16.0438 5.96942 15.7923 5.96942 15.5911C5.96942 15.39 5.96942 14.887 5.96942 14.1829C3.76758 14.6859 3.27829 13.0764 3.27829 13.0764C2.93578 12.1209 2.39755 11.8694 2.39755 11.8694C1.66361 11.3664 2.44648 11.3664 2.44648 11.3664C3.22936 11.4167 3.66972 12.2214 3.66972 12.2214C4.40367 13.4788 5.52905 13.1267 5.96942 12.9256C6.01835 12.3723 6.263 12.0203 6.45872 11.8191C4.69725 11.6179 2.83792 10.9138 2.83792 7.74528C2.83792 6.83998 3.1315 6.13587 3.66972 5.53234C3.62079 5.38146 3.32722 4.52646 3.76758 3.41999C3.76758 3.41999 4.4526 3.21882 5.96942 4.27499C6.6055 4.07381 7.29052 4.02352 7.97553 4.02352C8.66055 4.02352 9.34557 4.12411 9.98165 4.27499C11.4985 3.21882 12.1835 3.41999 12.1835 3.41999C12.6239 4.52646 12.3303 5.38146 12.2813 5.58263C12.7706 6.13587 13.1131 6.89028 13.1131 7.79557C13.1131 10.9641 11.2538 11.6179 9.49235 11.8191C9.78593 12.0706 10.0306 12.5735 10.0306 13.3279C10.0306 14.4344 10.0306 15.2894 10.0306 15.5911C10.0306 15.7923 10.1774 16.0438 10.5688 15.9935C13.7492 14.887 16 11.8191 16 8.19792C15.9511 3.67146 12.3792 0 7.97553 0Z" fill="white"/>
</g>
<defs>
<clipPath id="clip0_15_29">
<rect width="16" height="16" fill="white"/>
</clipPath>
</defs>
</svg>
