<svg width="32" height="32" viewBox="0 0 32 32" fill="none" xmlns="http://www.w3.org/2000/svg">
<rect width="32" height="32" fill="black"/>
<path fill-rule="evenodd" clip-rule="evenodd" d="M14.216 9.75547C13.6031 8.74818 12.0708 8.74817 11.4579 9.75547L4.77821 20.7336C4.16531 21.7409 4.93144 23 6.15725 23H11.3718C10.848 22.5624 10.6541 21.8055 11.0504 21.1561L16.1093 12.8672L14.216 9.75547Z" fill="white"/>
<path d="M18.4484 12.1636C18.9557 11.3394 20.2237 11.3394 20.731 12.1636L26.2589 21.1456C26.7662 21.9698 26.1322 23 25.1178 23H14.0616C13.0472 23 12.4131 21.9698 12.9204 21.1456L18.4484 12.1636Z" fill="white"/>
<circle cx="23.5" cy="22.5" r="4.5" fill="black"/>
<path d="M23.079 25.084C22.757 25.084 22.4653 25.028 22.204 24.916C21.9427 24.7993 21.7327 24.622 21.574 24.384C21.4153 24.146 21.3313 23.8473 21.322 23.488H22.204C22.2087 23.726 22.2857 23.9267 22.435 24.09C22.589 24.2487 22.8037 24.328 23.079 24.328C23.3403 24.328 23.541 24.2557 23.681 24.111C23.821 23.9663 23.891 23.7843 23.891 23.565C23.891 23.3083 23.7977 23.1147 23.611 22.984C23.429 22.8487 23.1933 22.781 22.904 22.781H22.54V22.046H22.911C23.149 22.046 23.3473 21.99 23.506 21.878C23.6647 21.766 23.744 21.6003 23.744 21.381C23.744 21.199 23.6833 21.0543 23.562 20.947C23.4453 20.835 23.282 20.779 23.072 20.779C22.8433 20.779 22.6637 20.8467 22.533 20.982C22.407 21.1173 22.337 21.283 22.323 21.479H21.448C21.4667 21.0263 21.623 20.6693 21.917 20.408C22.2157 20.1467 22.6007 20.016 23.072 20.016C23.408 20.016 23.6903 20.0767 23.919 20.198C24.1523 20.3147 24.3273 20.471 24.444 20.667C24.5653 20.863 24.626 21.08 24.626 21.318C24.626 21.5933 24.549 21.8267 24.395 22.018C24.2457 22.2047 24.059 22.3307 23.835 22.396C24.1103 22.452 24.3343 22.5873 24.507 22.802C24.6797 23.012 24.766 23.278 24.766 23.6C24.766 23.8707 24.7007 24.118 24.57 24.342C24.4393 24.566 24.248 24.7457 23.996 24.881C23.7487 25.0163 23.443 25.084 23.079 25.084Z" fill="white"/>
</svg>
