<svg width="400" height="300" viewBox="0 0 400 300" fill="none" xmlns="http://www.w3.org/2000/svg">
<path d="M67.1277 136.451L47.5281 136.551L74.7207 23.6504L95.0297 22.0758L67.1277 136.451Z" fill="white"/>
<path d="M78.0875 136.395L120.654 20.0891L150.679 17.7606L136.716 136.096L116.007 136.202L119.148 115.288L105.716 115.531L98.752 136.29L78.0875 136.395ZM129.338 44.7824L111.252 98.1274L121.478 97.8309L129.338 44.7824Z" fill="white"/>
<path d="M187.925 68.6156L170.255 135.926L148.543 136.037L179.484 15.5266L201.882 13.7899L205.827 56.1996L232.075 11.4484L256.891 9.52423L222.873 135.658L199.767 135.775L217.923 67.2543L192.702 106.276L187.925 68.6156Z" fill="white"/>
<path d="M44.7332 152.113L60.9508 152.196L61.5863 195.416L72.2129 152.254L91.2656 152.35L63.4969 264.158L48.2242 262.974L46.6008 218.68L35.8285 262.013L18.5684 260.673L44.7332 152.113Z" fill="#78FFFF"/>
<path d="M74.4043 265.004L116.768 152.479L146.646 152.632L132.75 269.529L112.143 267.93L115.268 247.325L101.902 246.462L94.9691 266.598L74.4043 265.004ZM125.407 177.829L107.411 229.557L117.587 230.102L125.407 177.829Z" fill="#78FFFF"/>
<path d="M217.777 177.116L192.175 176.044C189.782 176.004 188.736 176.654 187.992 179.637L171.07 244.498C170.05 248.222 171.217 249.778 174.286 249.975L199.102 251.557L190.997 274.045L162.078 271.802C152.327 271.047 144.241 264.262 148.202 249.123L170.488 163.95C172.823 155.074 177.367 152.789 184.598 152.825L227.009 153.041L217.777 177.116Z" fill="#78FFFF"/>
<path d="M268.519 280.057L244.326 278.181L258.76 226.051L246.555 225.477L232.164 277.237L208.959 275.437L242.261 153.119L266.396 153.242L252.637 203.468L264.928 203.887L279.049 153.306L304.232 153.435L268.519 280.057Z" fill="#78FFFF"/>
<path d="M373.388 153.787C382.064 153.831 386.525 161.302 384.292 169.278L353.753 272.581C350.523 283.311 341.782 285.737 332.949 285.052L302.015 282.654C293.395 281.985 286.857 274.955 289.867 264.233L317.781 166.236C319.684 158.719 325.595 153.543 334.181 153.587L373.388 153.787ZM340.896 178.142L317.435 258.925C316.918 260.866 317.781 262.177 319.857 262.313L326.641 262.758C328.739 262.896 330.315 261.736 330.841 259.779L354.474 178.577C355.014 176.573 354.293 175.098 351.778 175.055L344.983 174.941C342.315 174.896 341.427 176.336 340.896 178.142Z" fill="#78FFFF"/>
</svg>
